<svg id="Layer_1" data-name="Layer 1" xmlns="http://www.w3.org/2000/svg" viewBox="0 0 29 24.61"><defs><style>.cls-1{fill:#18b576;}.cls-2{fill:#4eafe3;}.cls-3{fill:#3b86ad;}.cls-4{fill:#13915f;}</style></defs><path class="cls-1" d="M30.5,18a23.71,23.71,0,0,1-3.35,9.69,1.51,1.51,0,0,1-1.23.6,1.67,1.67,0,0,1-1-1c-.47-1.21-.75-2.49-1.22-3.69a2.69,2.69,0,0,0-2.46-2.05c-1.39,0-2.09,1-2.54,2.1S18,26,17.58,27.13c-.2.48-.67,1.1-1.08,1.16a1.79,1.79,0,0,1-1.34-.84,24.36,24.36,0,0,1-3.07-8.86A9.28,9.28,0,0,1,12.17,16c.55-3.4,3.82-5,6.72-3.16a3.69,3.69,0,0,0,4.68,0C27,10.59,30.47,13,30.5,18Z" transform="translate(-1.5 -3.69)"/><path class="cls-1" d="M24.79,7.25a3.55,3.55,0,1,1-3.52-3.56A3.59,3.59,0,0,1,24.79,7.25Z" transform="translate(-1.5 -3.69)"/><path class="cls-2" d="M10.88,10.68A3.43,3.43,0,0,1,7.42,7.26a3.4,3.4,0,0,1,3.43-3.43,3.43,3.43,0,1,1,0,6.85Z" transform="translate(-1.5 -3.69)"/><path class="cls-2" d="M9.13,13.51s-.75,5.8,2.53,8.08a3.71,3.71,0,0,0-3.79,2.77c-.76,2-1.26,5.05-3,3.54-1-1.52-3.78-6.82-3.28-11.61a5.44,5.44,0,0,1,3.42-4,3.94,3.94,0,0,1,3.07.13A2,2,0,0,1,9.13,13.51Z" transform="translate(-1.5 -3.69)"/><path class="cls-3" d="M11.37,21.59h.29l-.07-.06Z" transform="translate(-1.5 -3.69)"/><path class="cls-3" d="M5.81,12.3s1,7.46,5.77,9.23c-3.19-2.31-2.45-8-2.45-8a2,2,0,0,0-1.08-1,3.84,3.84,0,0,0-2.36-.32Z" transform="translate(-1.5 -3.69)"/><path class="cls-4" d="M14.43,21.8a15.31,15.31,0,0,1,3.33-9.55c-2.56-.87-5.11.75-5.59,3.71a9.28,9.28,0,0,0-.08,2.63,24.36,24.36,0,0,0,3.07,8.86,1.88,1.88,0,0,0,.6.59A15.31,15.31,0,0,1,14.43,21.8Z" transform="translate(-1.5 -3.69)"/></svg>